PathFileType	4	(X/Y/Z)	 s07c0403.trc
DataRate	CameraRate	NumFrames	NumMarkers	Units	OrigDataRate	OrigDataStartFrame	OrigNumFrames
200	200	6	48	mm	200	1501	2000
Frame#	Time	racr			lacr			c7			jug			rlel			rdr			llel			ldr			s2			lic			ric			lasi			rasi			rpsi			lpsi			rgt			lgt			rth1			rth2			rth3			rth4			rlfc			rmfc			rsh1			rsh2			rsh3			rsh4			rlmal			rcal			rtoe			rmt5			lth1			lth2			lth4			lth3			llfc			lmfc			lsh1			lsh2			lsh3			lsh4			llmal			lcal			ltoe			lmt5			SBIKE			LBIKE			RBIKE			
		X1	Y1	Z1	X2	Y2	Z2	X3	Y3	Z3	X4	Y4	Z4	X5	Y5	Z5	X6	Y6	Z6	X7	Y7	Z7	X8	Y8	Z8	X9	Y9	Z9	X10	Y10	Z10	X11	Y11	Z11	X12	Y12	Z12	X13	Y13	Z13	X14	Y14	Z14	X15	Y15	Z15	X16	Y16	Z16	X17	Y17	Z17	X18	Y18	Z18	X19	Y19	Z19	X20	Y20	Z20	X21	Y21	Z21	X22	Y22	Z22	X23	Y23	Z23	X24	Y24	Z24	X25	Y25	Z25	X26	Y26	Z26	X27	Y27	Z27	X28	Y28	Z28	X29	Y29	Z29	X30	Y30	Z30	X31	Y31	Z31	X32	Y32	Z32	X33	Y33	Z33	X34	Y34	Z34	X35	Y35	Z35	X36	Y36	Z36	X37	Y37	Z37	X38	Y38	Z38	X39	Y39	Z39	X40	Y40	Z40	X41	Y41	Z41	X42	Y42	Z42	X43	Y43	Z43	X44	Y44	Z44	X45	Y45	Z45	X46	Y46	Z46	X47	Y47	Z47	X48	Y48	Z48	
1501	7.5050	839.232024	1335.956603	-86.877646	837.483159	1373.669463	-436.149047	853.666764	1420.118722	-256.725269	791.440436	1282.007680	-274.003657	543.009256	1155.894010	40.369248	694.757900	935.888672	-47.104631	544.996449	1166.085259	-499.257509	680.092588	922.640024	-420.442781	251.090845	1262.915346	-211.590881	396.324596	1316.034276	-357.434444	451.342997	1239.391840	-90.258092	412.919857	1232.508379	-357.648219	450.900658	1185.296201	-108.235827	296.952828	1287.659711	-161.296050	287.508633	1314.379883	-263.783774	349.852266	1126.432891	-52.350143	325.819588	1176.277291	-412.766945	359.549524	971.343152	-52.146111	368.676789	884.213274	-60.449982	337.968648	804.167596	-56.593410	400.873337	881.269945	-78.086640	319.604440	670.899029	-92.304330	287.971593	662.030639	-190.072929	236.137407	556.163717	-59.300879	207.356874	472.872964	-76.593036	145.989772	412.263030	-67.483623	219.380901	468.251885	-114.534478	64.397533	297.728361	-66.666635	-9.859409	299.207890	-91.428052	222.935394	125.978617	-126.181298	142.651130	135.709110	-51.590088	409.757554	1087.168099	-422.401274	491.987937	1054.617546	-428.160268	514.768622	1082.242351	-417.826749	547.254929	984.780959	-430.200658	668.681998	853.038328	-404.667575	662.047610	837.201566	-302.853711	550.761758	767.727960	-414.869074	478.978501	699.116307	-394.749630	403.146420	684.969318	-399.267079	495.008094	708.870677	-354.785205	279.234926	624.537071	-397.322716	203.263297	650.614702	-360.227295	371.239498	413.727556	-350.994281	303.600128	461.495142	-418.619223	-257.927617	967.150457	-231.188762	-75.654009	83.554205	-437.041175	-82.133383	79.500143	-39.580366	
1502	7.5100	839.296266	1334.250273	-88.912181	838.084056	1371.683353	-438.441554	854.287408	1418.723795	-258.622288	791.064864	1281.044395	-275.518306	542.999112	1155.307178	39.639313	694.499122	935.196157	-47.712555	543.855577	1165.703077	-499.092413	680.028388	922.912856	-420.331457	251.247896	1265.545533	-209.760787	395.168891	1318.164968	-357.085211	452.330861	1241.264763	-90.299462	411.539790	1234.550599	-357.483137	451.699088	1187.176032	-108.707697	297.554918	1289.927431	-159.900200	287.356045	1316.813865	-262.411167	351.673104	1127.938526	-51.691476	323.673976	1178.254387	-411.412077	362.680352	972.626395	-53.189106	372.965511	885.764296	-61.254744	343.052124	805.251706	-58.094839	405.242338	882.948339	-78.504909	325.397877	671.462941	-93.143330	294.157130	663.071836	-190.796050	238.838764	558.876203	-59.910867	208.263259	476.192579	-76.963487	145.392200	417.068977	-67.887202	220.158625	471.087369	-114.884368	61.089850	304.887128	-66.884587	-12.780374	308.959230	-92.154723	213.239154	126.919801	-126.065616	133.370568	139.912217	-51.573873	407.326372	1088.348641	-421.098760	489.629454	1055.563608	-427.467178	512.307038	1083.397507	-417.924306	544.337639	985.718050	-429.991683	666.724015	854.176741	-404.468906	660.219198	838.393203	-302.332219	549.618315	767.707083	-415.051600	479.627084	697.459944	-394.857869	403.674728	681.999780	-399.580092	495.263685	707.249589	-355.301268	280.999071	620.067338	-397.215542	203.189722	642.675430	-360.940830	381.937203	414.342037	-351.150472	311.998376	458.467120	-419.408374	-257.927304	967.078026	-231.395344	-75.672873	83.590911	-437.029934	-82.155742	79.569761	-39.562139	
1503	7.5150	839.357425	1332.748807	-90.871108	838.896605	1369.469855	-440.495105	854.871050	1417.311385	-260.456659	790.860587	1280.077760	-276.859043	543.018873	1154.838627	38.769430	694.405743	934.625508	-48.411756	542.892199	1165.349030	-498.992000	690.109024	927.683568	-429.411418	251.398012	1268.474706	-208.209357	394.221612	1320.039304	-356.794550	453.353222	1243.147502	-90.227039	410.092613	1236.566757	-357.543152	452.380514	1189.693952	-108.965143	298.237170	1292.460849	-158.664267	287.291615	1319.450739	-261.356544	353.321948	1129.611474	-51.214354	321.530290	1180.151500	-410.187585	366.155876	973.990535	-54.225825	377.698426	887.354168	-62.787770	349.199220	806.309482	-59.931171	410.236317	885.094522	-79.497354	331.615622	671.904547	-94.630845	301.938225	664.277746	-192.447250	242.784745	561.922813	-60.645329	210.306004	479.922320	-77.449772	145.950944	422.398695	-68.481511	222.289587	474.274954	-115.300093	58.979464	312.614015	-67.316390	-14.390639	319.434173	-92.871207	203.681334	128.122169	-126.032708	124.299874	144.722410	-51.656644	404.539229	1089.340106	-419.981769	486.509813	1056.156954	-426.957439	509.539723	1083.961169	-417.912526	540.978091	986.055991	-429.167239	663.901185	854.503883	-404.173673	656.765579	838.184340	-302.762260	547.441321	766.649911	-415.316480	479.400171	695.033694	-394.897388	403.161854	678.092696	-399.853029	487.578676	694.745151	-342.442662	281.651941	614.035734	-397.048473	202.118606	633.363386	-361.820041	392.110020	414.735427	-351.430025	319.837911	454.600581	-420.517301	-257.975316	967.091838	-231.523232	-75.679985	83.571567	-437.061083	-82.144168	79.595897	-39.599268	
1504	7.5200	839.039625	1331.178764	-93.700356	839.826028	1366.904078	-442.089892	855.573699	1415.941414	-261.772775	790.651542	1279.025212	-277.958634	543.046963	1154.482470	37.652145	694.587449	934.330957	-48.650450	542.152033	1165.009691	-498.968343	689.921288	927.879509	-429.196168	251.596477	1271.496967	-206.859460	393.419608	1321.839132	-356.587172	453.911476	1245.575401	-90.154336	408.732191	1238.508946	-357.397806	452.931348	1192.122473	-109.242841	298.925715	1295.355999	-157.715156	287.327971	1322.295020	-260.377813	354.852089	1131.525566	-50.789832	319.382794	1182.134053	-409.074055	369.948217	975.300608	-55.278820	383.138744	888.939388	-64.461862	356.298250	807.418384	-62.085836	415.703694	887.549230	-80.844581	340.534407	673.064466	-95.107545	311.314347	665.281592	-194.156951	247.931628	565.270054	-61.457566	214.835668	484.115080	-77.245475	147.684585	428.257005	-68.891920	225.215995	478.149716	-116.186275	58.279303	320.880312	-67.456967	-14.297475	330.686867	-93.400302	194.177846	129.290801	-125.929793	115.717730	150.043464	-51.740891	401.599923	1090.172577	-419.077840	483.261783	1056.307965	-426.329161	506.553663	1083.998070	-417.830146	536.822370	985.822346	-429.041429	660.048397	853.996737	-403.794589	652.882977	837.275511	-302.588806	544.238128	764.384916	-415.563690	478.372787	691.835688	-394.863236	401.693648	673.091726	-399.985820	485.206747	691.552215	-342.451634	281.429186	606.125670	-396.599438	200.331369	622.612656	-362.651930	401.740205	414.863914	-351.861016	327.051570	449.765916	-421.710934	-257.992189	967.099069	-231.723068	-75.682326	83.582807	-437.075729	-82.136018	79.663164	-39.608593	
1505	7.5250	838.980759	1330.260298	-95.196050	840.955445	1364.017219	-443.204557	856.114557	1414.583038	-263.166073	790.457959	1278.102485	-278.809294	543.086479	1154.363356	36.458228	694.976622	934.305000	-48.650826	541.503387	1164.673854	-499.087018	691.198732	930.523692	-434.044826	251.843533	1274.476589	-205.771088	392.767292	1323.556639	-356.524600	454.411085	1248.143118	-90.076760	407.437383	1240.436219	-357.457804	453.373531	1194.491936	-109.562355	299.490998	1298.379776	-156.948244	287.410904	1325.014769	-259.716040	356.346406	1133.549237	-50.345288	317.329780	1184.263771	-408.040786	374.105147	976.720652	-56.242242	389.060404	890.827375	-66.317511	364.090325	808.595172	-64.492865	421.682320	890.183757	-82.570847	348.562465	673.820294	-97.567919	321.458648	666.239820	-195.442778	254.285340	568.885384	-62.341832	219.505259	488.558014	-77.568478	150.790122	434.281177	-69.249971	229.776909	481.988036	-116.473136	59.154867	329.388568	-67.296685	-12.851688	342.550673	-94.000186	184.791302	130.718847	-125.827971	107.527905	155.593939	-51.807200	398.732779	1090.976594	-418.334769	480.000314	1056.090210	-425.727996	501.423980	1083.707576	-419.660625	532.813277	984.985703	-428.266379	652.465700	853.065764	-406.486294	648.067882	835.103703	-301.386040	539.979087	761.418141	-416.083857	476.633222	687.877602	-394.752747	399.375356	667.685646	-400.668630	481.869282	687.773726	-342.216707	280.579220	598.368212	-397.026142	197.782053	610.562907	-363.277151	411.060613	415.284050	-352.985454	333.707347	444.385089	-422.007089	-257.949101	967.145574	-231.952591	-75.679004	83.579880	-437.106479	-82.112873	79.728856	-39.647727	
1506	7.5300	838.842376	1329.740938	-96.485494	842.076140	1360.876297	-443.859762	856.465752	1413.318395	-264.855413	790.118493	1277.147602	-279.492472	543.202768	1154.408141	35.166160	695.373864	934.354630	-48.677551	540.967013	1164.290809	-499.322830	691.244321	930.553624	-434.034047	252.039322	1277.345038	-204.824679	392.246201	1325.118519	-356.546632	454.816060	1250.700065	-90.050994	406.375879	1242.197540	-357.261562	452.598767	1196.727279	-110.571407	299.914617	1301.275613	-156.420809	287.538877	1327.600677	-259.245869	357.606066	1135.297797	-50.698572	315.500785	1186.444548	-407.113234	378.637621	977.970714	-57.278846	395.569164	892.528968	-68.294158	372.399310	809.843465	-66.989549	428.293556	892.922252	-85.099779	358.763362	675.036073	-98.755543	332.006503	667.416027	-196.734434	261.746175	572.825354	-63.264555	225.611008	493.329618	-77.201688	155.132150	440.559008	-69.454014	235.432421	486.195000	-116.660302	61.231064	338.011711	-67.144362	-10.233727	354.595014	-94.216079	175.847582	132.401257	-125.531131	99.838174	161.631180	-51.882852	396.024602	1091.745103	-417.694535	476.738035	1055.700457	-425.235303	498.815342	1082.925329	-419.027822	528.669310	983.836346	-427.519665	648.216793	850.428909	-404.305294	642.049453	832.445453	-301.659390	534.873700	757.582572	-416.496936	474.278198	683.186365	-394.567506	395.847717	660.647796	-400.048559	477.371957	682.990868	-341.859826	278.419681	589.804871	-396.909126	194.642045	597.183163	-363.463565	419.129048	415.265019	-353.090869	340.267390	439.380914	-422.504575	-257.864087	967.234140	-232.243238	-75.677146	83.584935	-437.138803	-82.134663	79.971567	-39.603117	
